<?xml version="1.0" encoding="utf-8"?>
<!-- Generator: Adobe Illustrator 26.0.1, SVG Export Plug-In . SVG Version: 6.00 Build 0)  -->
<svg version="1.1" id="Layer_1" xmlns="http://www.w3.org/2000/svg" xmlns:xlink="http://www.w3.org/1999/xlink" x="0px" y="0px"
	 viewBox="0 0 1920 1000" style="enable-background:new 0 0 1920 1000;" xml:space="preserve">
<style type="text/css">
	
		.st0{clip-path:url(#SVGID_00000157287089715405400330000017452171193192058007_);fill:url(#SVGID_00000036220463738145514970000006422756109617839545_);}
	
		.st1{clip-path:url(#SVGID_00000018211759856328923880000013862756513720588697_);fill:url(#SVGID_00000070098738023660691420000002753821328060073391_);}
</style>
<g>
	<defs>
		<rect id="SVGID_1_" x="-82.2" y="0" width="2002.3" height="1016.7"/>
	</defs>
	<clipPath id="SVGID_00000148643931028927815430000006046164422832828604_">
		<use xlink:href="#SVGID_1_"  style="overflow:visible;"/>
	</clipPath>
	
		<linearGradient id="SVGID_00000153683231403643285610000013359864609742160575_" gradientUnits="userSpaceOnUse" x1="271.7292" y1="501.2719" x2="2021.6051" y2="501.2719" gradientTransform="matrix(1 0 0 -1 0 1002)">
		<stop  offset="0" style="stop-color:#494EBE;stop-opacity:0.8"/>
		<stop  offset="1" style="stop-color:#9BA9F2"/>
	</linearGradient>
	
		<path style="clip-path:url(#SVGID_00000148643931028927815430000006046164422832828604_);fill:url(#SVGID_00000153683231403643285610000013359864609742160575_);" d="
		M1057.6,547.3c151.6-216.2,181.8-436.8,188.9-546.7c224.5-0.2,449-0.4,673.5-0.5c33.8,221.9,67.7,443.7,101.5,665.6
		c-16.9,48.8-53.3,129.1-132.9,180.4c-49.1,31.6-95.8,40.1-116.3,43.5c-392.3,65.6-864.6,57.9-864.6,57.9
		c-151.8-2.7-369.3,4.8-636.1,54.1C347.6,992.5,786.6,933.7,1057.6,547.3z"/>
</g>
<g>
	<defs>
		<rect id="SVGID_00000138532543813471770460000005761570955562181554_" x="-82.2" y="0" width="2002.3" height="1143.4"/>
	</defs>
	<clipPath id="SVGID_00000002376049853052253780000016852708791492462269_">
		<use xlink:href="#SVGID_00000138532543813471770460000005761570955562181554_"  style="overflow:visible;"/>
	</clipPath>
	
		<linearGradient id="SVGID_00000063633773003251030840000000303977137761071543_" gradientUnits="userSpaceOnUse" x1="-143.8981" y1="242.8225" x2="2117.9109" y2="242.8225" gradientTransform="matrix(1 0 0 -1 0 1002)">
		<stop  offset="0" style="stop-color:#6268DD"/>
		<stop  offset="1" style="stop-color:#CDD5FF"/>
	</linearGradient>
	
		<path style="clip-path:url(#SVGID_00000002376049853052253780000016852708791492462269_);fill:url(#SVGID_00000063633773003251030840000000303977137761071543_);" d="
		M1822.6,527.1c137.2-82.7,234.1-176.2,295.3-244C1965,593.6,1954.2,702.8,1978,741.5c4.2,6.9,29.3,51.4,48.8,113.8
		c4.3,13.8,7.3,29.8,8,50c1.7,48.8-14,81.9-28.1,120.9c-26,71.7-26.8,111.1-33.7,130.1c-52.8,145.9-815.2,49.1-1008.9,27.5
		c-270.2-30-646-48.4-1108,3.7c222-269.9,436.3-372.1,588.8-415.9c269.2-77.5,361.3,16.3,834.6-61
		C1596.5,658.8,1773.2,556.8,1822.6,527.1z"/>
</g>
</svg>
