<svg id="Component_104_1" data-name="Component 104 – 1" xmlns="http://www.w3.org/2000/svg" width="48" height="48" viewBox="0 0 48 48">
  <path id="Path_22" data-name="Path 22" d="M153.969,875.416c0-1.3-.042-2.559.014-3.817a1.383,1.383,0,0,1,1.2-1.5,2.252,2.252,0,0,1,.5-.075c1.02-.016,2.04-.02,3.058-.028.2,0,.4,0,.6,0v-6.054c-.09-.006-.158-.012-.228-.012-1.52,0-3.04-.032-4.558.01a17.455,17.455,0,0,0-2.736.27,5.738,5.738,0,0,0-3.994,2.609,8.018,8.018,0,0,0-1.106,4.031c-.054,1.4-.026,2.8-.034,4.2,0,.114,0,.231,0,.382H143.1v6.055h3.594v17.5h7.25V881.483h4.824c.214-2.024.426-4.025.642-6.067Z" transform="translate(-121.677 -851.008)" fill="#fff"/>
  <path id="Path_23" data-name="Path 23" d="M180.387,857.465h-48v48H157.4v-.051h.006c0-.45-.006-.9-.006-1.351v-16.15h-3.594v-6.021H157.4c0-.152,0-.269,0-.382.008-1.4-.02-2.8.034-4.2a8.022,8.022,0,0,1,1.106-4.031,5.737,5.737,0,0,1,3.994-2.608,17.42,17.42,0,0,1,2.736-.271c1.518-.041,3.038-.012,4.558-.009.07,0,.138.006.228.012v6.053c-.208,0-.406,0-.6,0-1.018.008-2.038.012-3.058.028a2.308,2.308,0,0,0-.5.076,1.382,1.382,0,0,0-1.2,1.5c-.056,1.258-.014,2.518-.014,3.816h5.438c-.216,2.043-.428,4.042-.642,6.067h-4.824v17.507h15.736V888.158" transform="translate(-132.387 -857.465)" fill="#3b5998"/>
</svg>
