<svg id="Component_106_1" data-name="Component 106 – 1" xmlns="http://www.w3.org/2000/svg" width="48" height="48" viewBox="0 0 48 48">
  <path id="Path_27" data-name="Path 27" d="M523.828,500a23.736,23.736,0,0,1,15.738,6.226l-6.968,6.816c-.522-.4-1.05-.844-1.616-1.234a13.115,13.115,0,0,0-6.112-2.216,14.233,14.233,0,0,0-8.076,1.428,14.49,14.49,0,0,0-6.494,6.424c-.328.632-.574,1.306-.856,1.96-.24-.176-.482-.348-.718-.528q-2.745-2.088-5.492-4.176-.957-.729-1.91-1.466c.022-.048.042-.1.068-.144a24.107,24.107,0,0,1,8.81-9.422,24.352,24.352,0,0,1,11.14-3.6c.31-.022.622-.048.932-.072Z" transform="translate(-498.676 -500)" fill="#e94335"/>
  <path id="Path_28" data-name="Path 28" d="M509.442,514.3c.274.636.508,1.292.83,1.9a14.575,14.575,0,0,0,14.72,7.908,14.672,14.672,0,0,0,5.164-1.452c.472-.236.922-.514,1.382-.772q1.077.822,2.154,1.642,2.859,2.175,5.718,4.344a18.375,18.375,0,0,1-2.552,1.988,22.5,22.5,0,0,1-8.646,3.392c-1.138.2-2.3.276-3.444.41a.55.55,0,0,0-.12.04h-2.78a.413.413,0,0,0-.1-.04c-.306-.026-.612-.048-.916-.074a23.972,23.972,0,0,1-5.8-1.252,24.4,24.4,0,0,1-11.138-7.864,22.6,22.6,0,0,1-2.592-4.008c.026-.022.052-.046.078-.066q2.2-1.671,4.4-3.34Q507.617,515.675,509.442,514.3Z" transform="translate(-498.678 -485.702)" fill="#34a753"/>
  <path id="Path_29" data-name="Path 29" d="M528.459,532.164q-2.859-2.172-5.718-4.344-1.077-.819-2.154-1.642a13.2,13.2,0,0,0,2.086-1.756,10.946,10.946,0,0,0,2.786-5.3.994.994,0,0,0,.006-.1H512.273v-9.018h23.094c.08.61.192,1.214.23,1.822.07,1.11.146,2.222.128,3.332a24.506,24.506,0,0,1-2.86,11.392,20.766,20.766,0,0,1-4.326,5.55A.748.748,0,0,1,528.459,532.164Z" transform="translate(-487.727 -489.994)" fill="#4285f3"/>
  <path id="Path_30" data-name="Path 30" d="M502.644,528.145a23.268,23.268,0,0,1-2-5.324,23.17,23.17,0,0,1,1.308-14.758c.214-.488.46-.964.692-1.446q.954.735,1.91,1.466,2.745,2.091,5.492,4.176c.236.18.478.352.718.528-.186.728-.4,1.45-.548,2.186a12.88,12.88,0,0,0-.128,4.054,13.545,13.545,0,0,0,.66,2.874.493.493,0,0,1,.012.078q-1.824,1.38-3.646,2.76-2.2,1.668-4.4,3.34C502.7,528.1,502.67,528.123,502.644,528.145Z" transform="translate(-500 -493.383)" fill="#fabb05"/>
</svg>
