<svg xmlns="http://www.w3.org/2000/svg" xmlns:xlink="http://www.w3.org/1999/xlink" width="48" height="48" viewBox="0 0 48 48">
  <defs>
    <radialGradient id="radial-gradient" cx="0.266" cy="1.077" r="0.991" gradientTransform="translate(-2.918 5.666) rotate(-90) scale(1 0.93)" gradientUnits="objectBoundingBox">
      <stop offset="0" stop-color="#fd5"/>
      <stop offset="0.1" stop-color="#fd5"/>
      <stop offset="0.5" stop-color="#ff543e"/>
      <stop offset="1" stop-color="#c837ab"/>
    </radialGradient>
    <radialGradient id="radial-gradient-2" cx="-0.168" cy="0.072" r="0.443" gradientTransform="matrix(0.196, 0.981, -4.042, 0.809, 15.634, -0.42)" gradientUnits="objectBoundingBox">
      <stop offset="0" stop-color="#3771c8"/>
      <stop offset="0.128" stop-color="#3771c8"/>
      <stop offset="1" stop-color="#60f" stop-opacity="0"/>
    </radialGradient>
  </defs>
  <g id="Group_414" data-name="Group 414" transform="translate(-1042 -1272)">
    <path id="Path_1437" data-name="Path 1437" d="M24,0c-10.02,0-12.95.01-13.52.058a11.9,11.9,0,0,0-4.73,1.189A9.581,9.581,0,0,0,3,3.266,10.3,10.3,0,0,0,.217,9.1C.055,10.227.008,10.456,0,16.19c0,1.911,0,4.427,0,7.8C0,34,.009,36.933.057,37.5A12.06,12.06,0,0,0,1.2,42.14a10.111,10.111,0,0,0,6.553,5.354,17.023,17.023,0,0,0,3.485.462c.594.026,6.652.044,12.714.044s12.123-.007,12.7-.037a16.393,16.393,0,0,0,3.61-.473,10.049,10.049,0,0,0,6.553-5.365,11.863,11.863,0,0,0,1.131-4.548c.032-.414.046-7.007.046-13.593s-.015-13.168-.047-13.581a11.729,11.729,0,0,0-1.154-4.594,9.515,9.515,0,0,0-2.054-2.815A10.361,10.361,0,0,0,38.9.22C37.776.058,37.553.01,31.816,0Z" transform="translate(1042.003 1272)" fill="url(#radial-gradient)"/>
    <path id="Path_1438" data-name="Path 1438" d="M24,0c-10.02,0-12.95.01-13.52.058a11.9,11.9,0,0,0-4.73,1.189A9.581,9.581,0,0,0,3,3.266,10.3,10.3,0,0,0,.217,9.1C.055,10.227.008,10.456,0,16.19c0,1.911,0,4.427,0,7.8C0,34,.009,36.933.057,37.5A12.06,12.06,0,0,0,1.2,42.14a10.111,10.111,0,0,0,6.553,5.354,17.023,17.023,0,0,0,3.485.462c.594.026,6.652.044,12.714.044s12.123-.007,12.7-.037a16.393,16.393,0,0,0,3.61-.473,10.049,10.049,0,0,0,6.553-5.365,11.863,11.863,0,0,0,1.131-4.548c.032-.414.046-7.007.046-13.593s-.015-13.168-.047-13.581a11.729,11.729,0,0,0-1.154-4.594,9.515,9.515,0,0,0-2.054-2.815A10.361,10.361,0,0,0,38.9.22C37.776.058,37.553.01,31.816,0Z" transform="translate(1042.003 1272)" fill="url(#radial-gradient-2)"/>
    <path id="Path_1439" data-name="Path 1439" d="M35.721,18c-4.812,0-5.416.021-7.306.107a13,13,0,0,0-4.3.823,9.065,9.065,0,0,0-5.184,5.183,12.95,12.95,0,0,0-.823,4.3c-.085,1.891-.107,2.5-.107,7.309s.021,5.416.107,7.307a13.029,13.029,0,0,0,.823,4.3,9.069,9.069,0,0,0,5.182,5.186,13.012,13.012,0,0,0,4.3.823c1.89.086,2.494.107,7.306.107s5.415-.021,7.3-.107a13.019,13.019,0,0,0,4.3-.823,9.08,9.08,0,0,0,5.182-5.185,13.141,13.141,0,0,0,.823-4.3c.085-1.891.107-2.493.107-7.307s-.022-5.418-.107-7.308a13.135,13.135,0,0,0-.823-4.3,9.067,9.067,0,0,0-5.183-5.184,13.041,13.041,0,0,0-4.3-.823C41.131,18.021,40.53,18,35.716,18Zm-1.59,3.194h1.59c4.731,0,5.292.017,7.16.1a9.808,9.808,0,0,1,3.29.61,5.872,5.872,0,0,1,3.362,3.364,9.8,9.8,0,0,1,.61,3.29c.085,1.868.1,2.43.1,7.16s-.018,5.292-.1,7.16a9.805,9.805,0,0,1-.61,3.29,5.877,5.877,0,0,1-3.362,3.362,9.772,9.772,0,0,1-3.29.611c-1.868.085-2.429.1-7.16.1s-5.292-.018-7.16-.1a9.827,9.827,0,0,1-3.29-.611,5.871,5.871,0,0,1-3.364-3.363,9.8,9.8,0,0,1-.61-3.29c-.085-1.868-.1-2.43-.1-7.163s.017-5.292.1-7.16a9.815,9.815,0,0,1,.61-3.291A5.873,5.873,0,0,1,25.271,21.9a9.786,9.786,0,0,1,3.29-.611c1.635-.074,2.268-.1,5.571-.1ZM45.18,24.137a2.127,2.127,0,1,0,2.126,2.126,2.126,2.126,0,0,0-2.126-2.126Zm-9.459,2.485a9.1,9.1,0,1,0,9.1,9.1,9.1,9.1,0,0,0-9.1-9.1Zm0,3.194a5.908,5.908,0,1,1-5.907,5.908A5.907,5.907,0,0,1,35.721,29.816Z" transform="translate(1030.276 1260.277)" fill="#fff"/>
  </g>
</svg>
