<svg id="Component_107_5" data-name="Component 107 – 5" xmlns="http://www.w3.org/2000/svg" width="48" height="48" viewBox="0 0 48 48">
  <path id="Path_31" data-name="Path 31" d="M548.079,523.986q0,10.161,0,20.321a3.556,3.556,0,0,1-.842,2.457A3.427,3.427,0,0,1,544.569,548q-20.427.005-40.856,0a3.5,3.5,0,0,1-3.623-3.552c0-.064,0-.126,0-.188q0-20.3.006-40.6a4.414,4.414,0,0,1,.168-1.276A3.458,3.458,0,0,1,503.539,500q20.535,0,41.068,0a3.5,3.5,0,0,1,3.482,3.594c-.026,5.821-.01,11.646-.01,17.467ZM541,540.872v-.3c0-3.577.006-7.152,0-10.728,0-1.232-.016-2.466-.078-3.7a13.235,13.235,0,0,0-.87-4.336,6.328,6.328,0,0,0-3.946-3.832,10.538,10.538,0,0,0-3.935-.535,7.392,7.392,0,0,0-6.4,3.574c-.03.05-.1.078-.192.152v-3.166H518.8v22.849h7.066v-.3q0-5.574,0-11.15a9.493,9.493,0,0,1,.47-3.268,3.436,3.436,0,0,1,2.01-2.165,5.211,5.211,0,0,1,2.056-.3,3.08,3.08,0,0,1,3.03,2.176,9.57,9.57,0,0,1,.432,3.224q.009,5.754,0,11.506v.3Zm-26.718-22.862h-7.062v22.853h7.062Zm-7.638-7.292a4.132,4.132,0,1,0,4.14-4.118A4.132,4.132,0,0,0,506.647,510.719Z" transform="translate(-500.089 -499.999)" fill="#0274b2"/>
  <path id="Path_32" data-name="Path 32" d="M531.646,532.154h-7.134v-.3q0-5.754,0-11.506a9.593,9.593,0,0,0-.432-3.224,3.081,3.081,0,0,0-3.031-2.176,5.219,5.219,0,0,0-2.055.3,3.439,3.439,0,0,0-2.01,2.166,9.5,9.5,0,0,0-.47,3.268q-.006,5.573,0,11.15v.3h-7.066V509.29h6.777v3.166c.1-.074.163-.1.192-.152a7.389,7.389,0,0,1,6.4-3.574,10.53,10.53,0,0,1,3.936.534,6.333,6.333,0,0,1,3.946,3.832,13.271,13.271,0,0,1,.87,4.336c.062,1.231.074,2.464.078,3.7.01,3.576,0,7.153,0,10.728Z" transform="translate(-490.733 -491.28)" fill="#fefefe"/>
  <path id="Path_33" data-name="Path 33" d="M510.718,509.005v22.854h-7.062V509.005Z" transform="translate(-496.522 -490.993)" fill="#fefefe"/>
  <path id="Path_34" data-name="Path 34" d="M503.368,507.418a4.132,4.132,0,1,1,4.084,4.15A4.128,4.128,0,0,1,503.368,507.418Z" transform="translate(-496.809 -496.698)" fill="#fefefe"/>
</svg>
