<svg id="Component_105_1" data-name="Component 105 – 1" xmlns="http://www.w3.org/2000/svg" width="48" height="48" viewBox="0 0 48 48">
  <path id="Path_24" data-name="Path 24" d="M567,529.566H519v-48h48Zm-6.464-34.316c-.282.076-.566.15-.848.224l-2.96.776-.054-.13a7.5,7.5,0,0,0,3-3.848L555.188,494c-2.438-2.274-5.15-3.026-8.12-1.75-3.586,1.542-4.876,4.47-4.366,8.328a21.866,21.866,0,0,1-14.844-7.536,6.7,6.7,0,0,0-1.044,3.966,7.722,7.722,0,0,0,2.378,4.908c.208.216.42.428.63.642l-.078.152-2.922-.874a6.944,6.944,0,0,0,.844,3.638,7.2,7.2,0,0,0,4.836,3.416,8.349,8.349,0,0,1-3.172.182A7.332,7.332,0,0,0,536,514.112a14.377,14.377,0,0,1-10.386,3.15c6.062,3.522,12.42,4.244,18.844,1.4,8.5-3.766,12.494-10.622,12.676-19.824.85-.806,1.738-1.616,2.584-2.47a8.5,8.5,0,0,0,.81-1.124l.01-.03Z" transform="translate(-519 -481.566)" fill="#50aaf0"/>
  <path id="Path_25" data-name="Path 25" d="M557.22,490.211a8.513,8.513,0,0,1-.81,1.124c-.846.854-1.734,1.664-2.584,2.47-.182,9.2-4.172,16.058-12.676,19.824-6.424,2.844-12.782,2.122-18.844-1.4a14.378,14.378,0,0,0,10.386-3.15,7.332,7.332,0,0,1-6.668-5.038,8.346,8.346,0,0,0,3.172-.182,7.2,7.2,0,0,1-4.836-3.416,6.946,6.946,0,0,1-.844-3.638l2.922.874.078-.152c-.21-.214-.422-.426-.63-.642a7.722,7.722,0,0,1-2.378-4.908,6.7,6.7,0,0,1,1.044-3.966,21.867,21.867,0,0,0,14.844,7.536c-.51-3.858.78-6.786,4.366-8.328,2.97-1.276,5.682-.524,8.12,1.75l4.484-1.73a7.505,7.505,0,0,1-3,3.848l.054.13q1.482-.387,2.96-.776c.282-.074.566-.148.848-.224Z" transform="translate(-515.694 -476.533)" fill="#fefefe"/>
  <path id="Path_26" data-name="Path 26" d="M539.768,488.408v-.018l-.005.015Z" transform="translate(-502.769 -474.737)" fill="#fefefe"/>
</svg>
